# xmcd
#
# Track frame offsets:
#	150
#	24455
#	42342
#	68212
#	88360
#	103732
#	122265
#	141876
#	159851
#	181283
#	201110
#	220512
#	244400
#	263262
#	284054
#	298793
#	317925
#
# Disc length: 4667 seconds
#
# Revision: 0
# Processed by: cddbd v1.5.2PL0 Copyright (c) Steve Scherf et al.
# Submitted via: dBpowerAMP V4.0
#
DISCID=fd123911
DTITLE=Zucchero Sugar Fornaciari - All the best - Cd2
DYEAR=2007
DGENRE=Blues
TTITLE0=Overdose (d'amore)
TTITLE1=Il Mare...
TTITLE2=Dune Mosse
TTITLE3=Senza Una Donna
TTITLE4=Donne
TTITLE5=Ridammi il Sole
TTITLE6=Rispetto
TTITLE7=Pane e Sale
TTITLE8=Ahum
TTITLE9=Non Ti Sopporto Più
TTITLE10=Hey Man
TTITLE11=It's All Right (La Promessa)
TTITLE12=Va, Pensiero
TTITLE13=Pippo
TTITLE14=X Colpa Di Chi?
TTITLE15=Miserere
TTITLE16=Madre Dolcissima
EXTD=
EXTT0=
EXTT1=
EXTT2=
EXTT3=
EXTT4=
EXTT5=
EXTT6=
EXTT7=
EXTT8=
EXTT9=
EXTT10=
EXTT11=
EXTT12=
EXTT13=
EXTT14=
EXTT15=
EXTT16=
PLAYORDER=
